<?xml version="1.0" encoding="utf-8"?>
<!-- Generator: Adobe Illustrator 15.1.0, SVG Export Plug-In  -->
<!DOCTYPE svg PUBLIC "-//W3C//DTD SVG 1.1//EN" "http://www.w3.org/Graphics/SVG/1.1/DTD/svg11.dtd" [
	<!ENTITY ns_flows "http://ns.adobe.com/Flows/1.0/">
]>
<svg version="1.1"
	 xmlns="http://www.w3.org/2000/svg" xmlns:xlink="http://www.w3.org/1999/xlink" xmlns:a="http://ns.adobe.com/AdobeSVGViewerExtensions/3.0/"
	 x="0px" y="0px" width="286px" height="59px" viewBox="0 0 286 59" overflow="visible" enable-background="new 0 0 286 59"
	 xml:space="preserve">
<defs>
</defs>
<path fill="#AEBE6E" d="M0,14.21C0.24,12,2.26,10.16,4.5,10.2c75.92,0,151.83,0,227.75,0c-2.96,10.95-5.92,21.91-8.88,32.86
	c-0.21,0.75-0.32,1.53-0.25,2.3c0.18,2.74,2.34,5.14,5.02,5.68c5.38,1.42,10.77,2.86,16.15,4.29c-79.93,0.01-159.87,0-239.8,0.01
	C2.24,55.37,0.21,53.5,0,51.26V14.21L0,14.21z M87.52,17.89c-1.97,0.13-3.95,0.35-5.86,0.87c-1.05,0.3-2.11,0.69-2.99,1.35
	c-0.85,0.64-1.39,1.6-1.77,2.58c-0.63,1.63-0.92,3.38-1.11,5.11c-0.32,3.25-0.38,6.53-0.12,9.78c0.23,2.25,0.58,4.57,1.77,6.52
	c0.74,1.25,2.05,2.01,3.4,2.47c2.99,1,6.18,1.12,9.3,1.19c3.42,0,6.88-0.08,10.21-0.88c1.71-0.43,3.56-1.12,4.5-2.72
	c1.26-2.15,1.57-4.7,1.81-7.14c0.26-3.59,0.29-7.22-0.23-10.79c-0.34-1.99-0.81-4.09-2.19-5.64c-1.39-1.42-3.4-1.93-5.29-2.3
	C95.19,17.65,91.33,17.7,87.52,17.89L87.52,17.89z M172.7,18.59c-1.67,0.4-3.44,0.94-4.63,2.27c-1.37,1.53-1.9,3.61-2.17,5.6
	c-0.3,2.44-0.17,4.91-0.11,7.36c0.13,2.76,0.31,5.53,1,8.21c0.36,1.27,0.82,2.64,1.93,3.48c1.22,0.92,2.73,1.33,4.2,1.63
	c2.31,0.45,4.68,0.58,7.03,0.62c2.91,0.02,5.84-0.04,8.73-0.49c1.29-0.22,2.59-0.5,3.75-1.14c1.13-0.63,1.86-1.79,2.27-2.99
	c0.67-1.97,0.72-4.09,0.69-6.15h-6.68c0.07,1.37,0.15,2.81-0.46,4.06c-0.32,0.68-0.96,1.16-1.67,1.36c-1.61,0.47-3.3,0.51-4.97,0.55
	c-2.04,0.01-4.12,0-6.11-0.49c-0.84-0.23-1.8-0.59-2.14-1.47c-0.43-1.09-0.55-2.28-0.67-3.43c-0.21-2.35-0.23-4.71-0.21-7.06
	c0.04-1.74,0.09-3.49,0.52-5.18c0.19-0.73,0.51-1.55,1.25-1.88c1.35-0.64,2.88-0.72,4.35-0.84c2.2-0.09,4.42-0.13,6.61,0.17
	c0.91,0.17,1.98,0.35,2.52,1.19c0.72,1.14,0.67,2.55,0.67,3.85h6.67c-0.03-1.72-0.07-3.46-0.58-5.11c-0.37-1.22-1.03-2.41-2.1-3.15
	c-1.02-0.69-2.23-1.04-3.43-1.28c-2.22-0.43-4.5-0.52-6.76-0.51C179.03,17.8,175.83,17.91,172.7,18.59L172.7,18.59z M10.98,18.03
	c0,9.83,0,19.66,0,29.49c2.22,0,4.44,0,6.66,0c0.01-3.18,0-6.36,0-9.54h7.86c2.81-0.03,5.65,0,8.39-0.71
	c1.21-0.33,2.46-0.83,3.28-1.82c0.97-1.17,1.37-2.69,1.6-4.17c0.27-1.96,0.27-3.97,0.04-5.94c-0.22-1.64-0.65-3.34-1.73-4.64
	c-0.91-1.1-2.29-1.66-3.63-2.01c-2.35-0.6-4.79-0.67-7.2-0.66C21.15,18.03,16.06,18.03,10.98,18.03L10.98,18.03z M43.21,18.03v29.48
	c2.22,0,4.44,0,6.66,0c0.01-3.31,0-6.63,0-9.94c3.22,0,6.45,0,9.67,0c1.37,0.02,2.85,0.23,3.94,1.14c0.93,0.78,1.32,2.02,1.33,3.2
	c0.02,1.86,0,3.73,0.02,5.6c2.22,0,4.43,0,6.65,0c0.01-2.21,0-4.42,0-6.64c0-1.45-0.4-3-1.48-4.02c-1.15-1.11-2.78-1.47-4.32-1.56
	c-0.02-0.04-0.06-0.13-0.08-0.17c1.57-0.32,3.23-0.67,4.5-1.71c0.92-0.75,1.29-1.95,1.5-3.07c0.27-1.52,0.31-3.08,0.25-4.62
	c-0.1-1.73-0.45-3.53-1.53-4.93c-0.81-1.08-2.09-1.69-3.36-2.05c-1.97-0.55-4.03-0.69-6.06-0.71C55,18.03,49.1,18.03,43.21,18.03
	L43.21,18.03z M125.73,36.67c0,1.38,0.03,2.78-0.28,4.12c-0.14,0.57-0.37,1.18-0.88,1.51c-0.74,0.47-1.63,0.57-2.48,0.64
	c-1.21,0.06-2.45,0.04-3.64-0.25c-0.78-0.2-1.59-0.56-2.04-1.27c-0.45-0.7-0.36-1.57-0.42-2.37c0-1.03-0.08-2.06-0.15-3.09
	c-2.12-0.04-4.25-0.01-6.37-0.02c-0.1,2.5-0.16,5.07,0.57,7.5c0.37,1.21,1.06,2.42,2.25,3c1.72,0.85,3.67,1.06,5.58,1.22
	c2.95,0.17,5.94,0.2,8.87-0.36c1.59-0.33,3.34-0.89,4.26-2.34c1.14-1.79,1.33-3.98,1.4-6.05c0.02-6.96,0-13.93,0.01-20.89
	c-2.22-0.02-4.44,0-6.66-0.01C125.72,24.23,125.73,30.46,125.73,36.67L125.73,36.67z M137.88,47.51c8.06,0,16.12,0,24.18,0
	c0-1.57,0-3.13,0-4.7c-5.84-0.01-11.68,0-17.52-0.01v-8.34H161c-0.01-1.36,0.01-2.72-0.01-4.08c-0.09-0.01-0.28-0.04-0.37-0.05
	c-5.36,0.01-10.73,0-16.09,0c0.01-2.54,0-5.08,0-7.61c5.79,0,11.58,0,17.37,0c0-1.56,0-3.13-0.01-4.69c-8,0-16.01,0-24.01,0
	C137.87,27.85,137.88,37.69,137.88,47.51L137.88,47.51z M196.79,18.03c0,1.67,0,3.33,0,5c3.38,0,6.76,0,10.15,0
	c0,8.16,0,16.32,0,24.48c2.22,0,4.45,0,6.67,0c-0.01-8.16-0.01-16.32-0.01-24.48c3.5,0,6.99,0,10.5,0c0-1.67,0-3.34,0-5
	C214.99,18.03,205.89,18.03,196.79,18.03L196.79,18.03z"/>
<path fill="#AEBE6E" d="M87.67,22.69c1.72-0.15,3.45-0.15,5.18-0.11c1.36,0.04,2.73,0.13,4.06,0.42c0.6,0.13,1.21,0.31,1.72,0.67
	c0.52,0.37,0.71,1.02,0.87,1.59c0.32,1.27,0.42,2.61,0.49,3.92c0.1,2.14,0.1,4.3,0.02,6.45c-0.07,1.46-0.17,2.93-0.51,4.36
	c-0.18,0.69-0.41,1.46-1.04,1.88c-0.73,0.49-1.62,0.67-2.47,0.82c-1.94,0.31-3.91,0.32-5.86,0.29c-1.69-0.05-3.4-0.12-5.04-0.55
	c-0.77-0.2-1.6-0.56-1.93-1.34c-0.65-1.42-0.73-3.02-0.84-4.56c-0.11-2.74-0.07-5.49,0.12-8.22c0.13-1.3,0.22-2.64,0.7-3.87
	c0.25-0.68,0.95-1.02,1.59-1.22C85.69,22.9,86.68,22.78,87.67,22.69L87.67,22.69z"/>
<path fill="#AEBE6E" d="M17.64,22.73c2.62,0,5.23,0,7.85,0c1.5,0.02,3.03,0.02,4.5,0.36c0.62,0.15,1.29,0.44,1.57,1.05
	c0.55,1.14,0.58,2.43,0.63,3.68c0,1.33,0,2.76-0.66,3.96c-0.34,0.64-1.05,0.95-1.73,1.11c-1.36,0.32-2.77,0.37-4.17,0.39
	c-2.67,0.01-5.34,0-8.01,0C17.64,29.75,17.64,26.24,17.64,22.73L17.64,22.73z"/>
<path fill="#AEBE6E" d="M49.87,22.73c3.42,0,6.84,0,10.27,0c1.17,0.03,2.38,0.08,3.46,0.55c0.59,0.26,0.96,0.83,1.14,1.42
	c0.36,1.15,0.38,2.37,0.35,3.56c-0.05,1.04-0.16,2.14-0.69,3.06c-0.33,0.58-0.94,0.94-1.57,1.14c-1.16,0.36-2.4,0.4-3.6,0.4
	c-3.12,0-6.24,0.01-9.36-0.01C49.88,29.48,49.87,26.11,49.87,22.73L49.87,22.73z"/>
<path fill="#AEBE6E" d="M250.29,28.23c0.58,0,1.07-0.49,1.07-1.07c0-2.54,2.1-4.64,4.64-4.64c0.58,0,1.07-0.49,1.07-1.07
	s-0.49-1.07-1.07-1.07c-3.73,0-6.79,3.06-6.79,6.79C249.21,27.74,249.71,28.23,250.29,28.23z"/>
<path fill="#AEBE6E" d="M283.71,11.2c-0.74-0.57-1.63-0.87-2.52-1.08c-12.15-3.22-24.3-6.54-36.46-9.77
	C243.55-0.01,242.28,0,241.06,0h0c-1.53,1-2.9,1.45-3.65,2.83c-0.46,0.8-0.61,1.76-0.87,2.63c-3.29,12.19-6.59,24.39-9.87,36.58
	c-0.45,1.9,0.23,4.01,1.66,5.33c0.74,0.7,1.67,1.17,2.66,1.4c12.44,3.31,24.89,6.62,37.33,9.93c2.48,0.87,5.46-0.22,6.75-2.52
	c0.54-0.89,0.69-1.93,0.99-2.91l9.22-34.16c0.2-0.81,0.46-1.6,0.63-2.41C286.29,14.63,285.4,12.43,283.71,11.2z M241.07,3L241.07,3
	c1.13-1,2.29,0.74,1.85,1.86c-0.34,1.12-1.98,1.48-2.68,0.55C239.5,4.59,240,3,241.07,3z M275.56,31.55
	c-4.11,6.76-11.63,11.32-19.56,11.32s-15.45-4.58-19.56-11.32c-0.27-0.47-0.45-0.98-0.45-1.54c0-0.56,0.18-1.07,0.45-1.54
	c4.11-6.74,11.63-11.32,19.56-11.32s15.45,4.58,19.56,11.32c0.27,0.47,0.45,0.98,0.45,1.54C276,30.57,275.82,31.09,275.56,31.55z"/>
<path fill="#AEBE6E" d="M264.64,22.13c0.89,1.52,1.36,3.26,1.36,5.02c0,5.51-4.49,10-10,10s-10-4.49-10-10
	c0-1.76,0.47-3.5,1.36-5.02c-3.48,1.79-6.38,4.6-8.5,7.88c3.82,5.89,9.98,10,17.14,10s13.33-4.11,17.14-10
	C271.02,26.73,268.12,23.92,264.64,22.13z"/>
</svg>
